<svg width="196" height="32" viewBox="0 0 196 32" fill="none" xmlns="http://www.w3.org/2000/svg">
<path d="M15.72 10.84C16.52 9.64 16.92 8.52 16.92 7.48C16.92 6.44 16.6267 5.61333 16.04 5C15.4533 4.38667 14.68 4.08 13.72 4.08C12.76 4.08 11.9867 4.32 11.4 4.8C10.8133 5.25333 10.52 5.98667 10.52 7C10.52 7.98667 11.2133 9.77333 12.6 12.36C13.9867 14.9467 14.8667 16.6133 15.24 17.36C16.2533 19.3867 16.76 21.3467 16.76 23.24C16.76 25.6133 15.8933 27.5467 14.16 29.04C12.4533 30.5067 10.4267 31.24 8.08 31.24C5.76 31.24 3.93333 30.52 2.6 29.08C1.26667 27.6133 0.6 25.9067 0.6 23.96C0.6 20.36 2.82667 17.3867 7.28 15.04C5.46667 11.4667 4.56 8.97333 4.56 7.56C4.56 5.58667 5.34667 3.92 6.92 2.56C8.52 1.17333 10.4667 0.48 12.76 0.48C15.08 0.48 16.8533 1.06667 18.08 2.24C19.3067 3.41333 19.92 4.90667 19.92 6.72C19.92 7.92 19.52 9.29333 18.72 10.84H15.72ZM5.24 26.44C5.96 27.2133 6.82667 27.6 7.84 27.6C8.88 27.6 9.68 27.3067 10.24 26.72C10.8267 26.1067 11.12 25.2133 11.12 24.04C11.12 22.9733 10.7067 21.6667 9.88 20.12C9.77333 19.9067 9.57333 19.52 9.28 18.96C8.98667 18.3733 8.77333 17.96 8.64 17.72C5.65333 19.2667 4.16 21.2133 4.16 23.56C4.16 24.76 4.52 25.72 5.24 26.44ZM38.4512 31.2C35.9979 31.2 34.3712 30.3467 33.5712 28.64C32.1846 30.3733 30.3979 31.24 28.2112 31.24C26.0512 31.24 24.2246 30.5067 22.7312 29.04C21.2646 27.5733 20.5312 25.64 20.5312 23.24C20.5312 19.7467 21.5579 16.96 23.6112 14.88C25.6646 12.8 28.2646 11.76 31.4112 11.76C31.4912 11.76 31.5712 11.76 31.6513 11.76C32.9846 11.76 34.2112 11.9867 35.3312 12.44C36.0512 11.9867 36.9179 11.76 37.9313 11.76C38.9712 11.76 39.7179 11.8933 40.1713 12.16C39.9313 14.1333 39.6779 16.08 39.4113 18C39.1446 19.8933 38.9579 21.24 38.8513 22.04C38.6113 23.8533 38.4913 25.16 38.4913 25.96C38.4913 27.0267 38.9179 27.56 39.7713 27.56C40.4379 27.56 41.1446 27.12 41.8912 26.24C42.6379 25.3333 43.2912 23.92 43.8513 22C44.6246 22.6933 45.1579 23.4667 45.4513 24.32C44.6779 26.8533 43.6379 28.64 42.3313 29.68C41.0246 30.6933 39.7313 31.2 38.4512 31.2ZM32.0112 14.88C30.3046 14.88 28.9446 15.5333 27.9312 16.84C26.9446 18.12 26.3579 20.04 26.1712 22.6C26.1446 22.84 26.1312 23.0667 26.1312 23.28C26.1312 24.5867 26.4379 25.6267 27.0512 26.4C27.6912 27.1733 28.5046 27.56 29.4912 27.56C31.1712 27.56 32.4379 26.3733 33.2912 24L34.2513 15.36C33.4779 15.04 32.7312 14.88 32.0112 14.88ZM58.6453 2.16C58.832 1.70667 59.2453 1.33333 59.8853 1.04C60.552 0.719999 61.3386 0.559999 62.2453 0.559999C63.1786 0.559999 63.872 0.693332 64.3253 0.959998C64.0586 3.04 63.632 6.30667 63.0453 10.76C61.8186 20.0667 61.2053 25.2 61.2053 26.16C61.2053 27.0933 61.6053 27.56 62.4053 27.56C63.0986 27.56 63.8186 27.1333 64.5653 26.28C65.312 25.4 65.992 23.9733 66.6053 22C67.352 22.72 67.872 23.5067 68.1653 24.36C67.2053 27.5333 65.6986 29.5867 63.6453 30.52C62.712 30.9733 61.832 31.2 61.0053 31.2C58.632 31.2 57.0453 30.3467 56.2453 28.64C54.8586 30.3733 53.0853 31.24 50.9253 31.24C48.7653 31.24 46.9386 30.5067 45.4453 29.04C43.9786 27.5733 43.2453 25.64 43.2453 23.24C43.2453 19.7467 44.272 16.96 46.3253 14.88C48.3786 12.8 50.9786 11.76 54.1253 11.76C54.2053 11.76 54.2853 11.76 54.3653 11.76C55.4586 11.76 56.4853 11.92 57.4453 12.24L58.6453 2.16ZM54.7253 14.88C53.0186 14.88 51.6586 15.5333 50.6453 16.84C49.6586 18.12 49.072 20.04 48.8853 22.6C48.8586 22.84 48.8453 23.0667 48.8453 23.28C48.8453 24.5867 49.152 25.6267 49.7653 26.4C50.4053 27.1733 51.2186 27.56 52.2053 27.56C53.8853 27.56 55.152 26.3733 56.0053 24L57.0453 15.4C56.1653 15.0533 55.392 14.88 54.7253 14.88ZM67.4394 13.28C67.706 12.8 68.2127 12.44 68.9594 12.2C69.706 11.9333 70.4394 11.8 71.1594 11.8C71.906 11.8 72.5594 11.8933 73.1194 12.08C72.0794 20.1067 71.5594 24.16 71.5594 24.24C71.426 24.7733 71.3594 25.2267 71.3594 25.6C71.3594 25.9467 71.3727 26.2533 71.3994 26.52C71.5327 27.2133 72.026 27.56 72.8794 27.56C73.7594 27.56 74.5594 27 75.2794 25.88C76.026 24.7333 76.586 23.44 76.9594 22C77.146 22.1067 77.4394 22.4267 77.8394 22.96C78.2394 23.4933 78.4794 23.8933 78.5594 24.16C78.026 26.2933 77.1327 28.0133 75.8794 29.32C74.5727 30.6267 73.026 31.28 71.2394 31.28C69.4527 31.28 68.1194 30.84 67.2394 29.96C66.386 29.08 65.9594 27.9467 65.9594 26.56C65.9594 26.2667 65.9727 25.96 65.9994 25.64L67.4394 13.28ZM94.2181 16.6C94.2181 19.3733 92.5648 21.4933 89.2581 22.96C89.3381 23.44 89.4581 24.0133 89.6181 24.68C90.0981 26.6533 90.8981 27.6667 92.0181 27.72C92.0981 27.72 92.1781 27.72 92.2581 27.72C94.3915 27.72 95.9781 25.84 97.0181 22.08C97.5781 22.5867 98.1115 23.3467 98.6181 24.36C98.2448 25.8 97.7115 27.0133 97.0181 28C96.3515 28.9867 95.6181 29.6933 94.8181 30.12C93.4048 30.8667 92.0715 31.24 90.8181 31.24C87.8848 31.24 85.8315 29.6 84.6581 26.32C84.2048 25.0133 83.8981 23.68 83.7381 22.32C85.2581 21.9467 86.4581 21.3333 87.3381 20.48C88.2181 19.6 88.6581 18.6667 88.6581 17.68C88.6581 15.9733 87.8048 15.12 86.0981 15.12C85.1648 15.12 84.3648 15.48 83.6981 16.2C83.0315 16.8933 82.5915 17.7333 82.3781 18.72C82.2181 20.08 81.9515 22.2267 81.5781 25.16C81.2315 28.0667 81.0048 30.0133 80.8981 31H75.5781C77.4981 14.6533 78.6581 4.61333 79.0581 0.879999C79.6181 0.666665 80.3781 0.559999 81.3381 0.559999C83.4181 0.559999 84.4581 1.17333 84.4581 2.4V2.64C83.9248 7.46667 83.4315 11.16 82.9781 13.72C84.4448 12.36 86.2848 11.68 88.4981 11.68C90.1515 11.68 91.5115 12.1067 92.5781 12.96C93.6715 13.8133 94.2181 15.0267 94.2181 16.6ZM122.651 1.48C122.811 1.26666 123.318 1.06667 124.171 0.879999C125.051 0.666665 125.878 0.559999 126.651 0.559999C127.424 0.559999 128.064 0.666665 128.571 0.879999C126.624 16.4533 125.651 24.5067 125.651 25.04C125.651 25.5733 125.811 26.0533 126.131 26.48C126.478 26.88 126.971 27.08 127.611 27.08C129.371 27.08 130.944 24.6667 132.331 19.84C132.331 19.7867 132.344 19.72 132.371 19.64C132.398 19.56 132.411 19.5067 132.411 19.48C133.584 20.2267 134.344 20.6933 134.691 20.88C133.811 24.24 132.718 26.8133 131.411 28.6C130.104 30.36 128.424 31.24 126.371 31.24C124.318 31.24 122.931 30.2667 122.211 28.32H122.091C121.264 29.36 120.344 30.1067 119.331 30.56C118.318 31.0133 117.051 31.24 115.531 31.24C113.024 31.24 111.091 30.5867 109.731 29.28C108.398 27.9733 107.731 26.1067 107.731 23.68C107.731 23.1733 107.771 22.6133 107.851 22L108.971 12.64C106.331 10.7733 105.011 8.57333 105.011 6.04C105.011 4.36 105.518 3.02667 106.531 2.04C107.544 1.05333 108.838 0.559999 110.411 0.559999C113.691 0.559999 115.331 2.29333 115.331 5.76C115.331 6.32 115.291 6.94667 115.211 7.64L113.171 23.28C113.144 23.4667 113.131 23.7467 113.131 24.12C113.131 25.16 113.371 26 113.851 26.64C114.331 27.28 115.064 27.6 116.051 27.6C118.424 27.6 119.824 25.76 120.251 22.08L122.651 1.48ZM108.931 4.24C108.024 4.24 107.571 4.8 107.571 5.92C107.571 7.01333 108.184 8.09333 109.411 9.16L109.531 8.12C109.691 6.73333 109.784 5.86667 109.811 5.52C109.811 4.66667 109.518 4.24 108.931 4.24ZM142.313 31.36L131.193 31.12C130.847 31.12 130.673 30.6533 130.673 29.72C130.673 28.76 130.873 28.0133 131.273 27.48C131.673 26.4133 132.78 24.8533 134.593 22.8C135.18 22.1333 136.273 20.9333 137.873 19.2C139.473 17.4667 140.527 16.28 141.033 15.64L138.913 15.52C138.513 16.48 137.927 17.2667 137.153 17.88C136.407 18.4667 135.567 18.76 134.633 18.76C133.567 18.76 132.7 18.4533 132.033 17.84C131.367 17.2 131.033 16.32 131.033 15.2C131.033 14.08 131.42 13.1867 132.193 12.52C132.967 11.8533 134.033 11.52 135.393 11.52L146.513 11.76C146.86 11.76 147.033 12.2133 147.033 13.12C147.033 14.0533 146.86 14.7733 146.513 15.28C146.193 15.8667 145.727 16.4933 145.113 17.16C144.527 17.8 143.66 18.6667 142.513 19.76C141.367 20.8267 140.567 21.5867 140.113 22.04C138.327 23.8267 136.993 25.5467 136.113 27.2L138.793 27.36C139.193 26.4 139.767 25.6267 140.513 25.04C141.287 24.4267 142.14 24.12 143.073 24.12C144.14 24.12 145.007 24.44 145.673 25.08C146.34 25.6933 146.673 26.56 146.673 27.68C146.673 28.8 146.287 29.6933 145.513 30.36C144.74 31.0267 143.673 31.36 142.313 31.36ZM135.073 15.24C134.14 15.24 133.673 15.5467 133.673 16.16C133.673 16.7733 134.02 17.08 134.713 17.08C135.753 17.08 136.58 16.52 137.193 15.4L135.553 15.28C135.393 15.2533 135.233 15.24 135.073 15.24ZM142.633 27.64C143.567 27.64 144.033 27.3333 144.033 26.72C144.033 26.1067 143.687 25.8 142.993 25.8C141.953 25.8 141.127 26.36 140.513 27.48L142.153 27.6C142.313 27.6267 142.473 27.64 142.633 27.64ZM167.254 31.2C164.801 31.2 163.174 30.3467 162.374 28.64C160.988 30.3733 159.201 31.24 157.014 31.24C154.854 31.24 153.028 30.5067 151.534 29.04C150.068 27.5733 149.334 25.64 149.334 23.24C149.334 19.7467 150.361 16.96 152.414 14.88C154.468 12.8 157.068 11.76 160.214 11.76C160.294 11.76 160.374 11.76 160.454 11.76C161.788 11.76 163.014 11.9867 164.134 12.44C164.854 11.9867 165.721 11.76 166.734 11.76C167.774 11.76 168.521 11.8933 168.974 12.16C168.734 14.1333 168.481 16.08 168.214 18C167.948 19.8933 167.761 21.24 167.654 22.04C167.414 23.8533 167.294 25.16 167.294 25.96C167.294 27.0267 167.721 27.56 168.574 27.56C169.241 27.56 169.948 27.12 170.694 26.24C171.441 25.3333 172.094 23.92 172.654 22C173.428 22.6933 173.961 23.4667 174.254 24.32C173.481 26.8533 172.441 28.64 171.134 29.68C169.828 30.6933 168.534 31.2 167.254 31.2ZM160.814 14.88C159.108 14.88 157.748 15.5333 156.734 16.84C155.748 18.12 155.161 20.04 154.974 22.6C154.948 22.84 154.934 23.0667 154.934 23.28C154.934 24.5867 155.241 25.6267 155.854 26.4C156.494 27.1733 157.308 27.56 158.294 27.56C159.974 27.56 161.241 26.3733 162.094 24L163.054 15.36C162.281 15.04 161.534 14.88 160.814 14.88ZM183.568 26.52L184.528 17.6C184.528 16.88 184.342 16.28 183.968 15.8C183.595 15.32 182.968 15.08 182.088 15.08C181.235 15.08 180.502 15.4667 179.888 16.24C179.302 16.9867 178.928 17.9333 178.768 19.08C177.808 26.3867 177.302 30.36 177.248 31H171.848L174.048 12.16C175.168 11.8667 176.022 11.72 176.608 11.72C178.395 11.72 179.328 12.3733 179.408 13.68C180.715 12.4 182.275 11.76 184.088 11.76C185.928 11.76 187.368 12.2133 188.408 13.12C189.448 14.0267 189.968 15.1733 189.968 16.56C189.968 16.9333 189.888 17.64 189.728 18.68C189.115 22.7333 188.808 25.0933 188.808 25.76C188.808 26.9867 189.222 27.6 190.048 27.6C191.862 27.6 193.235 25.7067 194.168 21.92C195.075 22.88 195.622 23.64 195.808 24.2C194.395 28.8933 191.942 31.24 188.448 31.24C186.795 31.24 185.568 30.7333 184.768 29.72C183.968 28.7067 183.568 27.64 183.568 26.52Z" fill="#1E40AF"/>
</svg>
